<svg id="visual" viewBox="0 0 1920 953" width="1920" height="953" xmlns="http://www.w3.org/2000/svg" xmlns:xlink="http://www.w3.org/1999/xlink" version="1.1"><rect x="0" y="0" width="1920" height="953" fill="#1a1a1a"></rect><path d="M0 209L45.7 227.2C91.3 245.3 182.7 281.7 274.2 284C365.7 286.3 457.3 254.7 548.8 224.5C640.3 194.3 731.7 165.7 823 187.3C914.3 209 1005.7 281 1097 294.8C1188.3 308.7 1279.7 264.3 1371.2 234.8C1462.7 205.3 1554.3 190.7 1645.8 198.2C1737.3 205.7 1828.7 235.3 1874.3 250.2L1920 265L1920 0L1874.3 0C1828.7 0 1737.3 0 1645.8 0C1554.3 0 1462.7 0 1371.2 0C1279.7 0 1188.3 0 1097 0C1005.7 0 914.3 0 823 0C731.7 0 640.3 0 548.8 0C457.3 0 365.7 0 274.2 0C182.7 0 91.3 0 45.7 0L0 0Z" fill="#fff" stroke-linecap="round" stroke-linejoin="miter"></path></svg>