<svg id="visual" viewBox="0 0 1620 900" width="1620" height="900" xmlns="http://www.w3.org/2000/svg" xmlns:xlink="http://www.w3.org/1999/xlink" version="1.1"><rect x="0" y="0" width="1620" height="900" fill="#313131"></rect><path d="M0 266L162 271L324 205L486 243L648 195L810 211L972 197L1134 265L1296 213L1458 288L1620 220L1620 0L1458 0L1296 0L1134 0L972 0L810 0L648 0L486 0L324 0L162 0L0 0Z" fill="#9a9a9a"></path><path d="M0 172L162 189L324 175L486 149L648 223L810 184L972 159L1134 233L1296 191L1458 186L1620 143L1620 0L1458 0L1296 0L1134 0L972 0L810 0L648 0L486 0L324 0L162 0L0 0Z" fill="#777777"></path><path d="M0 155L162 146L324 107L486 108L648 131L810 180L972 133L1134 173L1296 110L1458 164L1620 118L1620 0L1458 0L1296 0L1134 0L972 0L810 0L648 0L486 0L324 0L162 0L0 0Z" fill="#565656"></path><path d="M0 95L162 91L324 125L486 93L648 78L810 67L972 92L1134 84L1296 115L1458 72L1620 129L1620 0L1458 0L1296 0L1134 0L972 0L810 0L648 0L486 0L324 0L162 0L0 0Z" fill="#373737"></path><path d="M0 39L162 61L324 85L486 73L648 60L810 47L972 81L1134 42L1296 52L1458 49L1620 55L1620 0L1458 0L1296 0L1134 0L972 0L810 0L648 0L486 0L324 0L162 0L0 0Z" fill="#1a1a1a"></path></svg>